# xmcd
#
# Track frame offsets:
#	150
#	19461
#	34830
#	50283
#	75277
#	95793
#	106332
#	126809
#	146339
#	166309
#
# Disc length: 2441 seconds
#
# Revision: 1
# Processed by: cddbd v1.5.2PL0 Copyright (c) Steve Scherf et al.
# Submitted via: EZCDAudioConverter 5.0.0.1
#
DISCID=7b09870a
DTITLE=The Charlie Daniels Band - Off the Grid: Doin' It Dylan
DYEAR=2014
DGENRE=Country
TTITLE0=Tangled Up in Blue
TTITLE1=Times They Are A Changin'
TTITLE2=I'll Be Your Baby Tonight
TTITLE3=Gotta Serve Somebody
TTITLE4=I Shall Be Released
TTITLE5=Country Pie
TTITLE6=Mr. Tambourine Man
TTITLE7=Hard Rain's A Gonna Fall
TTITLE8=Just Like a Woman
TTITLE9=Quinn the Eskimo (The Mighty Quinn)
EXTD=
EXTT0=
EXTT1=
EXTT2=
EXTT3=
EXTT4=
EXTT5=
EXTT6=
EXTT7=
EXTT8=
EXTT9=
PLAYORDER=
